<svg width="80" height="80" viewBox="0 0 80 80" fill="none" xmlns="http://www.w3.org/2000/svg">
<rect width="80" height="80" rx="8" fill="black"/>
<path d="M42.1919 26.6829C39.2595 22.4662 40.7859 14 40.7859 14C40.7859 14 21.0899 27.801 16.8838 40.6341C13.7703 50.1336 16.8838 66 16.8838 66C16.8838 66 21.2493 59.8367 25.3198 57.122C30.4876 53.6755 34.4231 52.8651 40.7859 52.0488C45.1348 51.4909 47.6413 52.0488 52.0339 52.0488C54.7793 52.0488 56.4375 52.7698 59.064 52.0488C63.9069 50.7192 67.5 43.1707 67.5 43.1707C67.5 43.1707 61.9895 42.322 59.064 40.6341C55.4512 38.5498 52.0339 33.0244 52.0339 33.0244C52.0339 33.0244 44.7019 30.2923 42.1919 26.6829Z" stroke="white" stroke-width="5"/>
</svg>
