<svg width="80" height="80" viewBox="0 0 80 80" fill="none" xmlns="http://www.w3.org/2000/svg">
<path d="M42.0588 29.2439C39.6904 25.8381 40.9232 19 40.9232 19C40.9232 19 25.0149 30.147 21.6177 40.5122C19.1029 48.1849 21.6177 61 21.6177 61C21.6177 61 25.1436 56.0219 28.4314 53.8293C32.6054 51.0456 35.784 50.391 40.9232 49.7317C44.4358 49.2811 46.4603 49.7317 50.0082 49.7317C52.2256 49.7317 53.5649 50.3141 55.6863 49.7317C59.5979 48.6578 62.5 42.561 62.5 42.561C62.5 42.561 58.0492 41.8754 55.6863 40.5122C52.7683 38.8287 50.0082 34.3659 50.0082 34.3659C50.0082 34.3659 44.0862 32.1591 42.0588 29.2439Z" stroke="white" stroke-width="3"/>
</svg>
