<svg width="80" height="80" viewBox="0 0 80 80" fill="none" xmlns="http://www.w3.org/2000/svg">
<rect width="80" height="80" rx="8" fill="white"/>
<path d="M20.8694 63.744V16.624L33.7654 15.508C34.3027 15.4667 34.8194 15.446 35.3154 15.446C35.8114 15.4047 36.266 15.384 36.6794 15.384C38.9527 15.384 40.978 15.6527 42.7554 16.19C44.574 16.7273 46.558 17.5127 48.7074 18.546C51.6007 19.8687 53.9567 21.5013 55.7754 23.444C57.594 25.3453 58.9374 27.7013 59.8054 30.512C60.6734 33.2813 61.1074 36.6707 61.1074 40.68C61.1074 45.9293 60.2187 50.352 58.4414 53.948C56.7054 57.544 54.308 60.3133 51.2494 62.256C48.1907 64.1573 44.6567 65.294 40.6474 65.666L27.0694 66.844L20.8694 63.744ZM34.3854 62.008C38.2707 61.6773 41.7014 60.5613 44.6774 58.66C47.6947 56.7587 50.0507 54.0513 51.7454 50.538C53.44 47.0247 54.2874 42.7053 54.2874 37.58C54.2874 30.5533 52.7787 25.2007 49.7614 21.522C46.7854 17.8433 42.3627 16.004 36.4934 16.004C36.08 16.004 35.646 16.0247 35.1914 16.066C34.7367 16.066 34.282 16.0867 33.8274 16.128L21.4894 17.182V63.062L34.3854 62.008ZM30.8514 25.49L32.6494 25.366C33.104 25.3247 33.5174 25.304 33.8894 25.304C34.3027 25.2627 34.716 25.242 35.1294 25.242C37.2787 25.242 39.0354 25.6347 40.3994 26.42C41.8047 27.2053 42.838 28.5487 43.4994 30.45C44.202 32.3513 44.5534 35.0173 44.5534 38.448C44.5534 43.3253 43.5407 46.9007 41.5154 49.174C39.49 51.406 36.7414 52.6667 33.2694 52.956L30.8514 53.142V25.49ZM37.6714 51.22C39.7794 50.3107 41.35 48.8433 42.3834 46.818C43.4167 44.7513 43.9334 41.9613 43.9334 38.448C43.9334 34.0667 43.3134 30.9253 42.0734 29.024C41.908 28.9827 41.7427 28.962 41.5774 28.962C41.412 28.962 41.2467 28.962 41.0814 28.962C40.7094 28.962 40.3374 28.9827 39.9654 29.024C39.6347 29.024 39.2834 29.0447 38.9114 29.086L37.6714 29.148V51.22Z" fill="black"/>
</svg>
